<svg width="39" height="40" viewBox="0 0 39 40" fill="none" xmlns="http://www.w3.org/2000/svg">
<g filter="url(#filter0_d_331_163)">
<rect x="3" y="3.79761" width="32.7381" height="32.7381" rx="16.369" fill="#FF8FB8"/>
</g>
<rect x="4.08035" y="4.48544" width="31.1012" height="31.1012" rx="15.5506" stroke="white" stroke-opacity="0.3" stroke-width="1.6369"/>
<rect x="4.63696" y="5.43481" width="29.4643" height="29.4643" rx="14.7321" fill="#211916"/>
<g filter="url(#filter1_d_331_163)">
<path d="M25.9494 25.7907L13.4762 29.3591C13.0615 29.4464 12.756 29.4028 12.5595 29.2282C12.3849 29.0535 12.2976 28.7589 12.2976 28.3442V24.0228C12.2976 23.6081 12.3849 23.3026 12.5595 23.1061C12.756 22.8879 13.0615 22.746 13.4762 22.6805L22.872 20.1597C23.0903 20.1161 23.2321 20.0506 23.2976 19.9633C23.3849 19.876 23.4286 19.7341 23.4286 19.5377C23.4286 19.3412 23.3849 19.1994 23.2976 19.1121C23.2321 19.0248 23.0903 18.9593 22.872 18.9157L13.4762 16.3948C13.0615 16.3293 12.756 16.1984 12.5595 16.002C12.3849 15.7837 12.2976 15.4672 12.2976 15.0526V10.7311C12.2976 10.3165 12.3849 10.0218 12.5595 9.8472C12.756 9.6726 13.0615 9.62895 13.4762 9.71625L25.9494 13.2847C27.3026 13.6776 28.3284 14.2232 29.0268 14.9216C29.747 15.5982 30.1071 16.744 30.1071 18.3591V20.7162C30.1071 22.3313 29.747 23.4881 29.0268 24.1865C28.3284 24.8631 27.3026 25.3978 25.9494 25.7907ZM25.0655 23.0407C25.6111 22.8879 26.0585 22.6478 26.4077 22.3204C26.7788 21.9712 26.9643 21.4365 26.9643 20.7162V18.3591C26.9643 17.6389 26.7788 17.126 26.4077 16.8204C26.0585 16.5149 25.6111 16.2857 25.0655 16.1329L15.2441 13.3174V13.6448L25 16.4603C25.4583 16.5912 25.8403 16.7877 26.1458 17.0496C26.4732 17.3115 26.6369 17.748 26.6369 18.3591V20.7162C26.6369 21.3274 26.4732 21.7857 26.1458 22.0912C25.8403 22.375 25.4583 22.5823 25 22.7133L15.2441 25.5287V25.8561L25.0655 23.0407Z" fill="#FF8FB8"/>
</g>
<path d="M26.2091 25.5L13.7359 29.0685C13.3212 29.1558 13.0157 29.1121 12.8192 28.9375C12.6446 28.7629 12.5573 28.4683 12.5573 28.0536V23.7321C12.5573 23.3175 12.6446 23.0119 12.8192 22.8155C13.0157 22.5972 13.3212 22.4554 13.7359 22.3899L23.1317 19.8691C23.35 19.8254 23.4918 19.7599 23.5573 19.6726C23.6446 19.5853 23.6883 19.4435 23.6883 19.247C23.6883 19.0506 23.6446 18.9087 23.5573 18.8214C23.4918 18.7341 23.35 18.6687 23.1317 18.625L13.7359 16.1042C13.3212 16.0387 13.0157 15.9077 12.8192 15.7113C12.6446 15.4931 12.5573 15.1766 12.5573 14.7619V10.4405C12.5573 10.0258 12.6446 9.73116 12.8192 9.55655C13.0157 9.38195 13.3212 9.3383 13.7359 9.4256L26.2091 12.9941C27.5623 13.3869 28.5881 13.9325 29.2865 14.631C30.0067 15.3075 30.3668 16.4534 30.3668 18.0685V20.4256C30.3668 22.0407 30.0067 23.1974 29.2865 23.8958C28.5881 24.5724 27.5623 25.1071 26.2091 25.5ZM25.3252 22.75C25.8708 22.5972 26.3182 22.3571 26.6674 22.0298C27.0385 21.6806 27.224 21.1458 27.224 20.4256V18.0685C27.224 17.3482 27.0385 16.8353 26.6674 16.5298C26.3182 16.2242 25.8708 15.995 25.3252 15.8423L15.5038 13.0268V13.3542L25.2597 16.1696C25.718 16.3006 26.1 16.497 26.4055 16.7589C26.7329 17.0208 26.8966 17.4573 26.8966 18.0685V20.4256C26.8966 21.0367 26.7329 21.495 26.4055 21.8006C26.1 22.0843 25.718 22.2917 25.2597 22.4226L15.5038 25.2381V25.5655L25.3252 22.75Z" fill="white" fill-opacity="0.2"/>
<defs>
<filter id="filter0_d_331_163" x="0.380953" y="1.44047" width="37.9762" height="37.9761" filterUnits="userSpaceOnUse" color-interpolation-filters="sRGB">
<feFlood flood-opacity="0" result="BackgroundImageFix"/>
<feColorMatrix in="SourceAlpha" type="matrix" values="0 0 0 0 0 0 0 0 0 0 0 0 0 0 0 0 0 0 127 0" result="hardAlpha"/>
<feOffset dy="0.261905"/>
<feGaussianBlur stdDeviation="1.30952"/>
<feComposite in2="hardAlpha" operator="out"/>
<feColorMatrix type="matrix" values="0 0 0 0 1 0 0 0 0 0 0 0 0 0 0.360784 0 0 0 1 0"/>
<feBlend mode="normal" in2="BackgroundImageFix" result="effect1_dropShadow_331_163"/>
<feBlend mode="normal" in="SourceGraphic" in2="effect1_dropShadow_331_163" result="shape"/>
</filter>
<filter id="filter1_d_331_163" x="9.67856" y="7.22819" width="23.0476" height="25.1429" filterUnits="userSpaceOnUse" color-interpolation-filters="sRGB">
<feFlood flood-opacity="0" result="BackgroundImageFix"/>
<feColorMatrix in="SourceAlpha" type="matrix" values="0 0 0 0 0 0 0 0 0 0 0 0 0 0 0 0 0 0 127 0" result="hardAlpha"/>
<feOffset dy="0.261905"/>
<feGaussianBlur stdDeviation="1.30952"/>
<feComposite in2="hardAlpha" operator="out"/>
<feColorMatrix type="matrix" values="0 0 0 0 1 0 0 0 0 0 0 0 0 0 0.360784 0 0 0 1 0"/>
<feBlend mode="normal" in2="BackgroundImageFix" result="effect1_dropShadow_331_163"/>
<feBlend mode="normal" in="SourceGraphic" in2="effect1_dropShadow_331_163" result="shape"/>
</filter>
</defs>
</svg>
