<?xml version="1.0" encoding="UTF-8"?><svg id="_レイヤー_1" xmlns="http://www.w3.org/2000/svg" viewBox="0 0 40 40"><defs><style>.cls-1{fill:#e6e6e6;}.cls-2{fill:gray;}</style></defs><rect class="cls-2" width="40" height="40" rx="5.64" ry="5.64"/><path class="cls-1" d="M22.9,11.29c-.35,.11-1.64,.56-2.5,1.92-.96,1.53-.65,3.08-.58,3.39-1.1-.06-2.99-.31-5.06-1.34-2.12-1.05-3.47-2.44-4.19-3.3-.21,.38-.71,1.38-.57,2.68,.21,1.97,1.69,3.05,1.94,3.22-.25,.01-.62,0-1.04-.11-.42-.11-.74-.29-.95-.43-.01,.4,0,1.53,.77,2.64,.98,1.42,2.48,1.74,2.79,1.81-.25,.07-.58,.14-.97,.16-.41,.02-.75-.02-1.02-.07,.11,.36,.48,1.41,1.55,2.22,1.1,.83,2.24,.89,2.62,.89-.6,.47-1.67,1.19-3.18,1.6-1.43,.39-2.65,.35-3.4,.26,.91,.56,4.84,2.84,9.73,1.71,2.7-.62,4.56-2.01,5.52-2.86,.87-.82,2.35-2.42,3.33-4.88,.87-2.2,.97-4.14,.95-5.3,.37-.26,.8-.61,1.24-1.07,.42-.44,.74-.87,.98-1.24-.34,.14-.72,.28-1.14,.41-.51,.15-.98,.24-1.4,.3,.3-.17,.79-.49,1.23-1.05,.43-.55,.62-1.09,.71-1.42-.37,.22-.83,.46-1.38,.67-.54,.2-1.04,.33-1.45,.4-.31-.31-1.06-.98-2.25-1.26-1.03-.25-1.88-.08-2.3,.03Z"/></svg>