<svg width="420" height="352" viewBox="0 0 420 352" fill="none" xmlns="http://www.w3.org/2000/svg">
<ellipse cx="210.03" cy="175.532" rx="143.377" ry="144.352" fill="url(#paint0_linear_897_165)"/>
<g filter="url(#filter0_d_897_165)">
<path d="M218.926 40.2933C253.191 42.4637 285.349 57.6977 308.854 82.8988C332.36 108.1 345.447 141.375 345.447 175.951" stroke="#FFF500" stroke-width="3.73" stroke-linecap="round"/>
</g>
<g filter="url(#filter1_d_897_165)">
<path d="M201.956 311.601C167.692 309.431 135.534 294.197 112.029 268.996C88.5226 243.794 75.4362 210.52 75.4362 175.943" stroke="#FFF500" stroke-width="3.73" stroke-linecap="round"/>
</g>
<g filter="url(#filter2_d_897_165)">
<path d="M345.402 184.963C343.184 219.467 327.991 251.821 302.918 275.441C277.845 299.061 244.778 312.172 210.446 312.111" stroke="#FFF500" stroke-width="3.73" stroke-linecap="round"/>
</g>
<g filter="url(#filter3_d_897_165)">
<path d="M75.9812 167.412C78.1988 132.908 93.3921 100.554 118.465 76.9338C143.537 53.314 176.605 40.2025 210.937 40.2643" stroke="#FFF500" stroke-width="3.73" stroke-linecap="round"/>
</g>
<path d="M218.945 39.9374C253.3 42.1136 285.541 57.388 309.107 82.6533C332.673 107.919 345.791 141.276 345.791 175.937" stroke="white" stroke-width="1.24333" stroke-linecap="round"/>
<path d="M201.946 311.945C167.591 309.769 135.349 294.495 111.784 269.23C88.218 243.964 75.0997 210.607 75.0997 175.946" stroke="white" stroke-width="1.24333" stroke-linecap="round"/>
<path d="M345.72 185C343.497 219.588 328.267 252.023 303.13 275.703C277.993 299.384 244.839 312.53 210.416 312.468" stroke="white" stroke-width="1.24333" stroke-linecap="round"/>
<path d="M75.6275 167.391C77.8507 132.803 93.0811 100.368 118.218 76.6873C143.355 53.0069 176.508 39.8605 210.931 39.9225" stroke="white" stroke-width="1.24333" stroke-linecap="round"/>
<g filter="url(#filter4_d_897_165)">
<path d="M129.606 84.0844C152.831 63.451 182.995 52.5064 213.954 53.479C244.914 54.4517 274.341 67.2686 296.243 89.3197" stroke="#FFF500" stroke-width="3.73" stroke-linecap="round"/>
</g>
<g filter="url(#filter5_d_897_165)">
<path d="M290.659 267.935C267.431 288.552 237.274 299.484 206.323 298.505C175.373 297.525 145.957 284.709 124.061 262.665" stroke="#FFF500" stroke-width="3.73" stroke-linecap="round"/>
</g>
<g filter="url(#filter6_d_897_165)">
<path d="M301.93 95.0955C322.366 118.518 333.17 148.9 332.142 180.059C331.113 211.217 318.331 240.811 296.396 262.816" stroke="#FFF500" stroke-width="3.73" stroke-linecap="round"/>
</g>
<g filter="url(#filter7_d_897_165)">
<path d="M119.015 256.889C98.5793 233.467 87.776 203.084 88.804 171.926C89.8321 140.767 102.614 111.173 124.549 89.1679" stroke="#FFF500" stroke-width="3.73" stroke-linecap="round"/>
</g>
<path d="M129.62 84.0198C152.957 63.2869 183.267 52.2894 214.375 53.2667C245.484 54.2441 275.053 67.1229 297.061 89.2805" stroke="white" stroke-width="1.24333" stroke-linecap="round"/>
<path d="M291.43 268.758C268.09 289.474 237.787 300.459 206.687 299.475C175.588 298.491 146.03 285.613 124.028 263.462" stroke="white" stroke-width="1.24333" stroke-linecap="round"/>
<path d="M302.772 95.0938C323.306 118.629 334.162 149.158 333.129 180.467C332.096 211.776 319.252 241.512 297.211 263.624" stroke="white" stroke-width="1.24333" stroke-linecap="round"/>
<path d="M118.932 257.668C98.397 234.133 87.5415 203.604 88.5745 172.295C89.6075 140.985 102.451 111.249 124.492 89.1375" stroke="white" stroke-width="1.24333" stroke-linecap="round"/>
<ellipse cx="210.394" cy="175.991" rx="99.1477" ry="99.7294" fill="#5F5F5F"/>
<g filter="url(#filter8_d_897_165)">
<path d="M83.0302 229.697C77.3601 230.703 71.9541 230.649 66.8122 229.537C61.7984 228.514 57.5298 226.291 54.0064 222.867C50.5729 219.314 48.3112 214.429 47.2212 208.212C46.6093 204.721 46.4403 200.871 46.7142 196.661C47.1126 189.955 48.4923 183.074 50.8535 176.02C53.3236 168.946 56.5149 162.138 60.4274 155.596C64.4489 149.034 69.0213 143.049 74.1446 137.642C79.2488 132.125 84.6887 127.561 90.4641 123.95C96.3295 120.211 102.37 117.79 108.585 116.687C110.439 116.359 112.376 116.184 114.396 116.163C118.891 116.153 122.395 117.219 124.906 119.36C127.508 121.373 129.086 123.961 129.64 127.124C130.29 130.833 129.741 134.754 127.992 138.889C126.244 143.023 123.703 147.129 120.37 151.206C117.127 155.155 113.446 158.845 109.325 162.275C105.313 165.686 101.27 168.596 97.1952 171.006C93.1204 173.416 89.412 175.029 86.0701 175.847C84.0174 176.324 82.8764 175.907 82.6469 174.599C82.5322 173.944 82.7446 173.232 83.2841 172.461C83.9135 171.562 84.8729 170.942 86.1623 170.601C94.5335 168.329 101.99 164.364 108.53 158.705C115.161 152.917 119.77 145.858 122.357 137.526C122.942 135.735 123.31 133.983 123.459 132.27C123.698 130.428 123.684 128.743 123.416 127.216C122.996 124.816 121.933 122.924 120.229 121.539C118.615 120.026 116.117 119.569 112.737 120.169C109.03 120.826 104.869 122.745 100.255 125.925C95.6211 128.997 90.8776 133.043 86.0241 138.065C81.2796 143.068 76.7234 148.825 72.3557 155.336C68.0778 161.718 64.3863 168.558 61.281 175.857C58.2656 183.028 56.2441 190.416 55.2162 198.021C54.5636 202.636 54.5623 206.797 55.2124 210.506C56.3789 217.16 59.5292 221.662 64.6634 224.013C69.7784 226.255 75.9888 226.728 83.2945 225.432C89.6188 224.311 96.3516 221.992 103.493 218.476C110.743 214.941 117.575 210.299 123.988 204.55C130.381 198.692 135.419 191.838 139.102 183.987C139.353 183.492 139.696 183.207 140.133 183.129C140.569 183.052 140.989 183.202 141.392 183.581C141.905 183.94 142.036 184.366 141.785 184.861C137.492 193.72 132.068 201.261 125.514 207.485C119.069 213.689 112.121 218.633 104.672 222.316C97.2227 225.999 90.0088 228.459 83.0302 229.697ZM142.794 213.53C141.921 213.685 141.636 213.342 141.939 212.501C142.042 211.808 142.301 210.075 142.714 207.302C143.236 204.51 143.827 201.144 144.485 197.203C145.143 193.262 145.847 189.258 146.595 185.188C147.324 181.01 148.021 177.288 148.685 174.021C148.094 175.138 147.143 176.768 145.832 178.913C144.631 181.038 143.339 183.291 141.958 185.673C140.577 188.055 139.257 190.145 137.998 191.943C137.728 192.328 137.539 192.531 137.43 192.55C137.102 192.608 136.881 192.31 136.767 191.655C136.537 190.346 136.654 189.088 137.117 187.882C138.981 184.402 140.773 181.16 142.495 178.155C144.307 175.022 145.929 172.091 147.362 169.363C146.157 168.902 145.469 168.18 145.297 167.199C145.029 165.671 145.658 164.773 147.185 164.502C147.839 164.386 148.349 164.408 148.714 164.568C148.842 164.658 148.961 164.693 149.07 164.674C149.179 164.654 149.307 164.744 149.455 164.943C149.866 164.083 150.178 163.296 150.39 162.584C150.712 161.852 150.969 161.075 151.162 160.254C151.426 159.195 151.973 157.185 152.804 154.226C153.724 151.139 154.886 147.503 156.288 143.317C157.691 139.132 159.347 134.79 161.256 130.29C163.256 125.661 165.476 121.331 167.917 117.299C170.448 113.139 173.158 109.677 176.047 106.916C179.045 104.135 182.288 102.435 185.778 101.816C186.214 101.738 186.66 101.716 187.115 101.747C187.551 101.67 187.997 101.647 188.452 101.679C191.274 101.741 193.354 102.384 194.693 103.609C196.013 104.724 196.835 106.209 197.16 108.064C197.39 109.372 197.366 110.839 197.088 112.463C196.901 113.958 196.495 115.492 195.871 117.065C194.36 121.269 192.149 125.654 189.239 130.219C186.31 134.675 182.945 139.208 179.143 143.819C175.432 148.301 171.656 152.739 167.817 157.131C164.067 161.395 160.561 165.447 157.299 169.287C155.657 175.315 154.51 180.635 153.858 185.25C153.186 189.755 152.698 193.385 152.393 196.138C153.325 194.398 154.742 191.898 156.644 188.636C158.545 185.375 160.736 181.837 163.215 178.023C165.695 174.209 168.312 170.54 171.067 167.014C173.803 163.38 176.48 160.375 179.099 157.998C181.699 155.512 184.035 154.086 186.107 153.718C188.724 153.254 190.271 154.386 190.749 157.113C191.208 159.731 190.788 162.786 189.489 166.278C188.19 169.77 187.132 172.713 186.315 175.107C185.342 178.541 184.624 181.818 184.159 184.937C183.784 187.928 183.65 190.37 183.757 192.263C183.724 192.718 183.746 193.164 183.822 193.601C183.88 193.928 183.947 194.31 184.023 194.746C184.788 199.109 186.697 201.02 189.75 200.478C191.386 200.188 193.395 198.82 195.776 196.373C198.158 193.926 200.528 191.088 202.885 187.858C205.242 184.628 207.345 181.556 209.195 178.641C211.135 175.597 212.427 173.344 213.069 171.88C213.339 171.495 213.692 171.264 214.128 171.186C214.564 171.109 214.92 171.215 215.196 171.503C215.471 171.792 215.548 172.228 215.425 172.812C214.66 174.86 213.381 177.505 211.588 180.747C209.776 183.88 207.701 187.116 205.364 190.455C203.007 193.685 200.637 196.523 198.255 198.97C197.029 200.312 195.338 201.568 193.182 202.738C191.154 203.997 189.05 204.82 186.869 205.207C185.124 205.516 183.358 205.38 181.569 204.797C179.781 204.215 178.294 202.791 177.11 200.527C176.611 199.603 176.209 198.269 175.903 196.524C175.807 195.978 175.711 195.433 175.616 194.887C175.501 194.233 175.441 193.569 175.435 192.895C175.259 189.327 175.764 185.47 176.948 181.323C178.223 177.048 179.41 173.239 180.51 169.895C180.793 168.945 180.986 168.123 181.09 167.43C181.302 166.717 181.37 166.143 181.294 165.707C181.141 164.834 180.683 164.465 179.919 164.601C179.156 164.736 178.043 165.44 176.579 166.711C175.116 167.983 173.231 170.061 170.926 172.944C168.89 175.442 166.806 178.623 164.673 182.488C162.629 186.225 160.605 190.07 158.6 194.025C156.704 197.96 154.995 201.356 153.472 204.213C152.058 207.051 151.007 208.756 150.321 209.327C149.833 209.751 148.674 210.519 146.846 211.631C145.017 212.742 143.666 213.375 142.794 213.53ZM159.116 161.373C162.961 157.655 167.064 153.159 171.424 147.887C175.765 142.506 179.731 136.91 183.322 131.1C187.003 125.161 189.641 119.688 191.237 114.681C192.106 111.94 192.397 109.752 192.11 108.116C191.785 106.261 190.805 105.479 189.169 105.769C188.406 105.905 187.572 106.278 186.667 106.888C185.743 107.389 184.713 108.247 183.576 109.461C177.265 116.428 172.29 124.284 168.651 133.027C164.992 141.661 161.814 151.11 159.116 161.373ZM261.465 191.977C259.611 192.305 257.79 192.179 256.002 191.596C254.322 190.994 252.89 189.561 251.706 187.297C251.207 186.373 250.805 185.038 250.499 183.293C250.078 180.894 249.937 178.163 250.075 175.102C250.213 172.041 250.482 169.406 250.882 167.198C250.375 167.513 249.511 168.679 248.29 170.695C247.16 172.582 245.714 174.919 243.954 177.706C242.284 180.364 240.351 183.125 238.154 185.989C236.048 188.724 233.766 191.097 231.307 193.108C228.849 195.118 226.311 196.356 223.694 196.82C221.95 197.129 220.01 196.967 217.875 196.334C215.721 195.591 213.901 194.508 212.415 193.084C210.397 191.193 209.187 189.102 208.785 186.811C208.269 183.866 208.715 180.638 210.123 177.126C211.641 173.596 213.722 170.077 216.368 166.571C219.104 162.937 222.061 159.601 225.238 156.563C228.506 153.397 231.632 150.705 234.616 148.489C237.69 146.144 240.216 144.515 242.192 143.603C244.258 142.561 246.654 141.799 249.38 141.316C250.906 141.045 252.526 140.982 254.238 141.129C255.931 141.166 257.399 141.524 258.642 142.203C259.591 142.485 260.405 142.959 261.084 143.626C261.763 144.293 262.179 145.063 262.332 145.935C262.485 146.808 262.151 147.148 261.331 146.956C260.229 145.802 258.886 145.197 257.302 145.14C255.808 144.955 254.298 144.998 252.771 145.269C248.41 146.043 243.86 148.312 239.124 152.076C234.387 155.84 230.281 159.999 226.807 164.551C225.69 165.874 224.225 168.102 222.414 171.235C220.692 174.24 219.181 177.488 217.882 180.98C216.583 184.472 216.163 187.527 216.622 190.145C216.87 191.563 217.472 192.75 218.426 193.705C218.996 194.391 219.772 194.648 220.753 194.474C222.28 194.203 224.154 193.027 226.375 190.946C228.705 188.846 231.032 186.408 233.357 183.634C235.662 180.751 237.714 178.025 239.512 175.457C241.42 172.869 242.778 170.998 243.587 169.842C244.037 169.2 244.882 167.925 246.121 166.018C247.451 163.983 248.87 161.819 250.38 159.527C251.889 157.235 253.229 155.254 254.398 153.585C255.676 151.896 256.533 151.013 256.969 150.935C257.514 150.839 258.415 150.848 259.672 150.962C261.019 150.948 262.176 151.137 263.144 151.527C264.112 151.918 264.4 152.598 264.007 153.567C261.899 158.215 260.374 162.984 259.432 167.875C258.581 172.637 258.221 176.356 258.353 179.032C258.32 179.488 258.342 179.934 258.419 180.37C258.476 180.697 258.543 181.079 258.619 181.516C259.384 185.879 261.293 187.79 264.346 187.248C265.982 186.958 267.991 185.589 270.372 183.143C272.754 180.696 275.124 177.857 277.481 174.628C279.838 171.398 281.941 168.325 283.791 165.41C285.731 162.367 287.023 160.114 287.665 158.65C287.935 158.265 288.234 158.043 288.561 157.985C288.997 157.908 289.417 158.058 289.82 158.437C290.205 158.706 290.281 159.142 290.05 159.745C289.195 161.922 287.861 164.576 286.049 167.709C284.238 170.842 282.153 174.024 279.796 177.254C277.439 180.483 275.07 183.322 272.688 185.769C271.462 187.111 269.825 188.357 267.778 189.507C265.75 190.767 263.646 191.59 261.465 191.977ZM311.592 183.424C309.739 183.752 308.026 183.606 306.456 182.985C304.905 182.473 303.656 181.12 302.709 178.926C302.171 177.784 301.797 176.613 301.587 175.413C301.013 172.141 301.277 168.833 302.377 165.488C303.567 162.016 305.078 158.767 306.909 155.743C308.72 152.61 310.281 149.971 311.592 147.827C312.311 146.8 313.092 145.48 313.934 143.869C314.885 142.238 315.236 140.714 314.987 139.296C314.834 138.423 314.255 137.682 313.248 137.073C312.223 136.356 310.537 136.036 308.19 136.115C306.843 136.129 305.56 136.188 304.342 136.291C303.213 136.267 302.049 136.36 300.85 136.573C298.523 141.26 296.261 145.991 294.062 150.767C291.954 155.415 289.618 160.047 287.054 164.663C286.425 165.562 285.837 166.06 285.292 166.157C284.638 166.273 284.254 166.003 284.139 165.349C284.024 164.694 284.236 163.982 284.776 163.211C289.402 154.968 293.124 146.379 295.943 137.443C295.398 137.54 294.58 137.685 293.489 137.879C292.38 137.963 291.489 138.009 290.815 138.016C290.014 137.933 289.357 137.712 288.844 137.353C288.331 136.994 288.037 136.596 287.96 136.16C287.845 135.506 288.051 135.075 288.577 134.87C289.918 134.182 291.33 133.257 292.813 132.094C294.295 130.931 295.621 129.515 296.79 127.846C298.049 126.048 299.189 124.215 300.211 122.347C301.213 120.369 302.02 118.877 302.63 117.869C303.298 117.188 304.068 116.77 304.94 116.615C305.485 116.519 306.005 116.595 306.498 116.845C307.101 117.076 307.459 117.518 307.574 118.173C307.708 118.936 307.553 119.976 307.109 121.292C306.395 122.993 305.601 124.877 304.727 126.944C303.962 128.992 303.222 130.866 302.509 132.568C304.49 132.328 306.472 132.089 308.454 131.85C310.436 131.611 312.463 131.308 314.534 130.941C315.625 130.747 316.661 130.564 317.642 130.39C318.713 130.087 319.794 129.839 320.885 129.646C324.156 129.066 325.935 129.594 326.222 131.23C326.413 132.321 326.052 133.79 325.14 135.639C324.317 137.36 323.25 139.292 321.94 141.437C318.978 146.348 316.6 151.381 314.805 156.536C313.01 161.69 311.897 165.599 311.464 168.263C311.051 171.035 310.959 173.076 311.188 174.385C311.647 177.003 312.913 178.128 314.984 177.761C316.838 177.432 318.911 176.108 321.203 173.79C323.604 171.452 325.992 168.723 328.368 165.602C330.725 162.372 332.829 159.3 334.679 156.385C336.51 153.361 337.801 151.108 338.553 149.625C338.714 149.259 339.012 149.037 339.448 148.96C339.885 148.882 340.304 149.033 340.708 149.411C341.093 149.68 341.169 150.117 340.938 150.72C340.063 152.787 338.73 155.442 336.937 158.684C335.125 161.817 333.041 164.998 330.684 168.228C328.327 171.458 325.957 174.296 323.575 176.743C322.349 178.085 320.559 179.415 318.204 180.733C315.977 182.14 313.773 183.037 311.592 183.424ZM349.391 176.382C347.429 176.73 345.553 176.613 343.764 176.031C342.085 175.429 340.653 173.996 339.469 171.731C339.303 171.423 339.136 171.115 338.97 170.807C338.913 170.48 338.846 170.098 338.769 169.662C338.387 167.481 338.399 164.667 338.807 161.22C339.215 157.774 339.86 154.398 340.742 151.092C340.241 152.081 339.669 153.307 339.026 154.771C338.364 156.125 337.387 157.929 336.096 160.183C335.736 160.696 335.283 161.002 334.738 161.098C333.975 161.234 333.517 160.865 333.364 159.992C333.249 159.338 333.372 158.754 333.731 158.24C335.935 154.138 337.879 150.475 339.563 147.252C341.356 144.01 342.625 141.311 343.371 139.154C343.333 138.936 343.545 138.223 344.008 137.016C344.452 135.701 345.038 133.91 345.765 131.644C344.912 131.908 344.167 132.152 343.532 132.377C342.987 132.474 342.496 132.561 342.06 132.638C341.297 132.774 340.585 132.562 339.926 132.005C339.266 131.447 339.068 130.638 339.332 129.579C339.609 127.956 340.656 126.87 342.471 126.323C344.287 125.776 345.893 125.323 347.292 124.962C347.363 124.725 347.562 124.577 347.889 124.519C348.777 121.887 349.619 119.32 350.417 116.816C351.215 114.313 351.862 112.23 352.357 110.567C352.962 108.886 353.255 107.99 353.236 107.881C354.805 104.004 355.821 101.462 356.284 100.255C356.728 98.939 357.476 98.0753 358.528 97.6637C359.708 97.3419 360.972 97.1741 362.318 97.1601C363.774 97.1269 364.787 97.4534 365.357 98.1395C365.761 98.5178 366.02 99.0342 366.134 99.6887C366.307 100.67 366.261 101.691 365.996 102.75C365.713 103.7 365.401 104.486 365.061 105.109C364.759 105.95 364.254 106.602 363.549 107.064C362.933 107.398 362.448 108.159 362.094 109.347C361.366 111.613 360.559 114.061 359.671 116.693C358.783 119.325 357.822 121.857 356.787 124.29L358.721 123.779C361.3 123.096 363.705 122.389 365.938 121.655C368.279 120.903 370.986 120.31 374.058 119.878C374.604 119.781 375.168 119.793 375.751 119.915C376.425 119.908 376.79 120.068 376.847 120.395C376.924 120.831 375.612 121.683 372.91 122.949C371.896 123.579 369.584 124.495 365.972 125.698C362.45 126.773 358.819 127.866 355.079 128.98C354.352 131.245 353.677 133.165 353.053 134.738C352.41 136.201 351.982 137.289 351.77 138.002C350.251 143.445 348.873 148.413 347.637 152.906C346.491 157.271 346.038 160.781 346.279 163.438C346.246 163.893 346.268 164.339 346.345 164.776C346.402 165.103 346.469 165.485 346.546 165.921C347.311 170.284 349.11 172.214 351.945 171.712C353.69 171.402 355.763 170.079 358.164 167.741C360.546 165.294 362.915 162.455 365.272 159.226C367.61 155.887 369.704 152.76 371.554 149.845C373.494 146.802 374.785 144.548 375.428 143.085C375.698 142.699 375.996 142.478 376.324 142.42C376.76 142.342 377.115 142.448 377.391 142.736C377.775 143.006 377.906 143.432 377.784 144.016C377.128 146.045 375.849 148.69 373.947 151.951C372.135 155.084 370.006 158.33 367.559 161.688C365.202 164.918 362.832 167.756 360.451 170.203C359.224 171.545 357.588 172.792 355.541 173.942C353.622 175.182 351.572 175.995 349.391 176.382Z" fill="#FF00A1"/>
</g>
<g filter="url(#filter9_d_897_165)">
<path d="M85.5654 227.74C80.0087 228.726 74.7108 228.674 69.6717 227.583C64.7582 226.581 60.575 224.402 57.122 221.047C53.7572 217.565 51.5407 212.778 50.4726 206.685C49.873 203.264 49.7073 199.491 49.9757 195.365C50.3661 188.793 51.7183 182.05 54.0322 175.137C56.4529 168.204 59.5804 161.532 63.4147 155.121C67.3557 148.691 71.8367 142.826 76.8575 137.526C81.8596 132.12 87.1907 127.648 92.8506 124.109C98.5987 120.444 104.518 118.071 110.609 116.991C112.426 116.669 114.324 116.498 116.304 116.477C120.709 116.467 124.143 117.512 126.604 119.61C129.153 121.583 130.7 124.119 131.243 127.219C131.88 130.854 131.342 134.697 129.628 138.748C127.915 142.8 125.425 146.823 122.159 150.819C118.981 154.69 115.373 158.306 111.334 161.667C107.403 165.01 103.44 167.862 99.4471 170.223C95.4538 172.585 91.8196 174.166 88.5444 174.968C86.5329 175.435 85.4146 175.027 85.1898 173.744C85.0773 173.103 85.2855 172.404 85.8142 171.649C86.431 170.768 87.3712 170.161 88.6348 169.826C96.8386 167.6 104.146 163.714 110.556 158.168C117.054 152.496 121.57 145.578 124.106 137.413C124.679 135.658 125.039 133.941 125.186 132.262C125.42 130.456 125.406 128.806 125.144 127.309C124.732 124.957 123.69 123.103 122.02 121.746C120.438 120.263 117.991 119.815 114.678 120.403C111.045 121.047 106.967 122.928 102.445 126.044C97.9045 129.054 93.2559 133.02 88.4994 137.942C83.8498 142.844 79.3848 148.486 75.1043 154.866C70.9121 161.121 67.2943 167.825 64.2512 174.978C61.2961 182.005 59.315 189.245 58.3077 196.698C57.6681 201.22 57.6669 205.299 58.304 208.933C59.4471 215.454 62.5344 219.866 67.5659 222.17C72.5787 224.367 78.6648 224.831 85.8244 223.561C92.0222 222.462 98.6204 220.19 105.619 216.744C112.724 213.279 119.419 208.73 125.704 203.097C131.969 197.356 136.907 190.639 140.516 182.944C140.762 182.46 141.098 182.18 141.526 182.104C141.953 182.028 142.365 182.176 142.76 182.546C143.263 182.898 143.391 183.316 143.145 183.801C138.938 192.483 133.623 199.873 127.199 205.973C120.883 212.053 114.075 216.897 106.774 220.507C99.474 224.116 92.4044 226.527 85.5654 227.74ZM144.134 211.897C143.279 212.049 143 211.712 143.296 210.888C143.397 210.209 143.65 208.511 144.055 205.794C144.567 203.057 145.146 199.758 145.791 195.897C146.436 192.035 147.126 188.11 147.859 184.122C148.573 180.027 149.256 176.379 149.907 173.178C149.328 174.272 148.396 175.87 147.111 177.972C145.934 180.055 144.668 182.263 143.315 184.597C141.961 186.932 140.667 188.98 139.434 190.742C139.169 191.119 138.984 191.317 138.877 191.336C138.556 191.393 138.34 191.101 138.227 190.46C138.002 189.177 138.117 187.944 138.571 186.761C140.397 183.351 142.154 180.174 143.841 177.229C145.617 174.159 147.207 171.287 148.611 168.613C147.43 168.161 146.755 167.454 146.586 166.492C146.324 164.995 146.941 164.114 148.437 163.849C149.078 163.735 149.578 163.757 149.936 163.914C150.061 164.002 150.178 164.036 150.284 164.017C150.391 163.999 150.517 164.086 150.661 164.281C151.064 163.438 151.37 162.668 151.578 161.969C151.893 161.252 152.145 160.491 152.335 159.686C152.593 158.648 153.13 156.679 153.944 153.779C154.846 150.754 155.984 147.19 157.358 143.089C158.733 138.987 160.356 134.731 162.227 130.321C164.186 125.785 166.362 121.542 168.755 117.59C171.235 113.513 173.891 110.121 176.722 107.415C179.66 104.689 182.838 103.023 186.258 102.417C186.685 102.341 187.122 102.319 187.568 102.35C187.996 102.274 188.433 102.252 188.879 102.283C191.644 102.343 193.683 102.974 194.995 104.174C196.288 105.267 197.094 106.722 197.413 108.54C197.638 109.822 197.614 111.259 197.342 112.851C197.158 114.316 196.761 115.82 196.15 117.361C194.668 121.481 192.502 125.778 189.65 130.252C186.779 134.619 183.482 139.062 179.756 143.58C176.119 147.973 172.419 152.321 168.656 156.626C164.981 160.805 161.546 164.776 158.349 168.539C156.74 174.446 155.616 179.66 154.976 184.182C154.318 188.598 153.84 192.154 153.541 194.853C154.454 193.148 155.843 190.697 157.706 187.501C159.57 184.304 161.717 180.838 164.147 177.1C166.577 173.362 169.142 169.766 171.841 166.311C174.522 162.75 177.146 159.804 179.713 157.475C182.261 155.04 184.55 153.642 186.58 153.281C189.145 152.827 190.661 153.935 191.13 156.608C191.58 159.173 191.168 162.167 189.895 165.589C188.622 169.012 187.585 171.896 186.784 174.242C185.831 177.608 185.127 180.819 184.671 183.876C184.304 186.806 184.172 189.2 184.277 191.055C184.245 191.501 184.267 191.938 184.342 192.366C184.398 192.687 184.464 193.061 184.539 193.488C185.288 197.764 187.159 199.637 190.151 199.106C191.754 198.822 193.722 197.481 196.057 195.083C198.391 192.685 200.713 189.903 203.023 186.738C205.333 183.573 207.394 180.562 209.207 177.705C211.108 174.723 212.374 172.514 213.004 171.08C213.268 170.702 213.614 170.476 214.041 170.4C214.469 170.324 214.818 170.428 215.088 170.71C215.357 170.993 215.432 171.421 215.312 171.993C214.562 174 213.309 176.592 211.552 179.769C209.777 182.84 207.743 186.011 205.452 189.283C203.142 192.448 200.82 195.23 198.486 197.628C197.284 198.943 195.627 200.174 193.514 201.32C191.527 202.554 189.465 203.361 187.327 203.74C185.618 204.043 183.886 203.91 182.134 203.339C180.381 202.768 178.924 201.373 177.764 199.154C177.275 198.249 176.88 196.941 176.58 195.23C176.487 194.696 176.393 194.161 176.299 193.627C176.187 192.986 176.128 192.335 176.122 191.674C175.95 188.178 176.444 184.398 177.605 180.334C178.854 176.145 180.017 172.411 181.096 169.134C181.373 168.203 181.563 167.398 181.664 166.719C181.872 166.02 181.939 165.457 181.864 165.03C181.714 164.175 181.265 163.813 180.517 163.946C179.769 164.079 178.678 164.768 177.243 166.015C175.809 167.261 173.962 169.297 171.703 172.122C169.708 174.57 167.666 177.688 165.575 181.476C163.573 185.138 161.589 188.906 159.624 192.782C157.766 196.638 156.09 199.967 154.598 202.766C153.212 205.547 152.183 207.218 151.51 207.778C151.032 208.193 149.897 208.946 148.104 210.035C146.312 211.125 144.989 211.745 144.134 211.897ZM160.13 160.783C163.898 157.139 167.919 152.734 172.191 147.567C176.446 142.293 180.332 136.809 183.851 131.115C187.459 125.295 190.044 119.932 191.608 115.025C192.46 112.339 192.745 110.194 192.464 108.591C192.145 106.774 191.184 106.007 189.581 106.291C188.833 106.424 188.016 106.789 187.129 107.388C186.224 107.879 185.214 108.719 184.1 109.909C177.915 116.737 173.04 124.436 169.473 133.004C165.888 141.465 162.774 150.725 160.13 160.783ZM260.432 190.775C258.615 191.097 256.83 190.972 255.077 190.401C253.432 189.812 252.028 188.407 250.868 186.188C250.379 185.283 249.984 183.975 249.685 182.265C249.272 179.913 249.134 177.237 249.269 174.237C249.404 171.237 249.668 168.656 250.06 166.492C249.563 166.8 248.716 167.942 247.52 169.918C246.412 171.768 244.996 174.058 243.271 176.789C241.634 179.394 239.739 182.1 237.587 184.906C235.523 187.587 233.286 189.913 230.877 191.883C228.468 193.853 225.981 195.066 223.416 195.521C221.706 195.824 219.806 195.665 217.713 195.044C215.603 194.316 213.819 193.255 212.362 191.86C210.385 190.006 209.199 187.957 208.806 185.712C208.3 182.826 208.737 179.662 210.117 176.221C211.604 172.761 213.644 169.313 216.236 165.877C218.918 162.316 221.815 159.046 224.929 156.069C228.131 152.966 231.195 150.329 234.12 148.157C237.132 145.859 239.607 144.263 241.544 143.368C243.568 142.347 245.917 141.6 248.588 141.127C250.084 140.861 251.671 140.8 253.349 140.944C255.008 140.98 256.447 141.331 257.665 141.997C258.595 142.273 259.393 142.737 260.058 143.391C260.724 144.044 261.131 144.799 261.281 145.654C261.431 146.509 261.104 146.843 260.3 146.655C259.22 145.523 257.904 144.93 256.352 144.875C254.888 144.694 253.408 144.736 251.912 145.001C247.637 145.759 243.179 147.983 238.537 151.672C233.895 155.361 229.872 159.436 226.467 163.898C225.372 165.194 223.937 167.377 222.161 170.448C220.474 173.392 218.993 176.576 217.72 179.998C216.447 183.42 216.035 186.414 216.485 188.98C216.729 190.369 217.318 191.532 218.254 192.469C218.812 193.141 219.572 193.392 220.534 193.221C222.03 192.956 223.866 191.804 226.043 189.764C228.327 187.706 230.607 185.318 232.885 182.599C235.145 179.773 237.155 177.102 238.918 174.585C240.787 172.049 242.118 170.215 242.911 169.082C243.352 168.453 244.18 167.204 245.395 165.335C246.698 163.341 248.089 161.22 249.568 158.974C251.047 156.727 252.36 154.786 253.505 153.15C254.758 151.495 255.598 150.63 256.025 150.554C256.56 150.459 257.443 150.468 258.674 150.58C259.994 150.567 261.128 150.751 262.077 151.134C263.025 151.517 263.307 152.183 262.923 153.133C260.857 157.688 259.362 162.362 258.44 167.155C257.605 171.822 257.252 175.467 257.381 178.089C257.35 178.536 257.371 178.973 257.446 179.4C257.502 179.721 257.568 180.095 257.643 180.523C258.392 184.799 260.263 186.671 263.255 186.14C264.858 185.856 266.827 184.515 269.161 182.117C271.495 179.719 273.817 176.938 276.127 173.772C278.437 170.607 280.498 167.596 282.311 164.74C284.212 161.757 285.478 159.549 286.108 158.114C286.372 157.737 286.665 157.52 286.985 157.463C287.413 157.387 287.824 157.534 288.22 157.905C288.597 158.169 288.672 158.597 288.445 159.188C287.607 161.321 286.3 163.922 284.524 166.992C282.749 170.063 280.706 173.181 278.396 176.346C276.086 179.511 273.764 182.293 271.43 184.691C270.228 186.006 268.624 187.227 266.618 188.355C264.631 189.589 262.569 190.395 260.432 190.775ZM309.556 182.392C307.74 182.715 306.062 182.571 304.523 181.963C303.002 181.461 301.778 180.135 300.85 177.985C300.324 176.866 299.957 175.718 299.751 174.542C299.189 171.335 299.447 168.093 300.525 164.816C301.691 161.413 303.172 158.229 304.966 155.266C306.742 152.195 308.272 149.609 309.556 147.508C310.261 146.501 311.026 145.208 311.851 143.629C312.783 142.031 313.127 140.537 312.883 139.147C312.733 138.292 312.165 137.566 311.179 136.969C310.174 136.266 308.522 135.953 306.222 136.03C304.902 136.044 303.645 136.101 302.451 136.203C301.345 136.179 300.204 136.271 299.028 136.479C296.748 141.072 294.531 145.709 292.377 150.389C290.311 154.944 288.021 159.483 285.509 164.007C284.892 164.888 284.316 165.376 283.782 165.471C283.141 165.584 282.764 165.321 282.652 164.679C282.539 164.038 282.748 163.34 283.276 162.585C287.81 154.506 291.458 146.088 294.22 137.332C293.685 137.427 292.884 137.569 291.815 137.758C290.728 137.841 289.855 137.886 289.195 137.893C288.409 137.811 287.765 137.595 287.263 137.243C286.76 136.891 286.472 136.502 286.397 136.074C286.284 135.433 286.486 135.011 287.001 134.81C288.316 134.136 289.699 133.229 291.152 132.089C292.605 130.95 293.904 129.562 295.05 127.926C296.284 126.164 297.401 124.368 298.402 122.537C299.385 120.599 300.175 119.136 300.773 118.149C301.428 117.481 302.182 117.072 303.037 116.92C303.571 116.826 304.08 116.901 304.564 117.146C305.155 117.372 305.506 117.805 305.618 118.447C305.75 119.195 305.598 120.214 305.163 121.503C304.463 123.171 303.685 125.017 302.828 127.043C302.078 129.049 301.353 130.886 300.654 132.554C302.596 132.319 304.539 132.085 306.481 131.851C308.423 131.617 310.409 131.319 312.44 130.959C313.508 130.77 314.523 130.59 315.485 130.419C316.535 130.123 317.594 129.88 318.663 129.69C321.868 129.122 323.612 129.639 323.893 131.243C324.08 132.312 323.727 133.752 322.832 135.564C322.026 137.25 320.981 139.144 319.697 141.245C316.794 146.059 314.464 150.991 312.705 156.042C310.946 161.094 309.855 164.925 309.431 167.535C309.026 170.252 308.935 172.252 309.16 173.535C309.61 176.1 310.85 177.203 312.88 176.843C314.697 176.521 316.728 175.224 318.974 172.952C321.327 170.66 323.668 167.986 325.997 164.928C328.307 161.762 330.368 158.751 332.181 155.895C333.975 152.931 335.241 150.723 335.978 149.27C336.135 148.911 336.428 148.694 336.855 148.618C337.283 148.542 337.694 148.69 338.09 149.06C338.466 149.324 338.541 149.752 338.315 150.343C337.458 152.369 336.151 154.97 334.394 158.148C332.618 161.218 330.576 164.336 328.266 167.501C325.956 170.666 323.634 173.448 321.3 175.846C320.098 177.161 318.343 178.464 316.035 179.755C313.853 181.134 311.693 182.013 309.556 182.392ZM346.599 175.492C344.676 175.833 342.838 175.718 341.085 175.147C339.439 174.557 338.036 173.153 336.876 170.934C336.712 170.632 336.549 170.33 336.386 170.029C336.33 169.708 336.265 169.334 336.19 168.906C335.815 166.768 335.827 164.011 336.227 160.633C336.626 157.256 337.258 153.947 338.123 150.708C337.632 151.677 337.071 152.878 336.441 154.313C335.792 155.64 334.835 157.408 333.569 159.617C333.217 160.12 332.774 160.419 332.239 160.514C331.491 160.646 331.042 160.285 330.892 159.43C330.78 158.789 330.9 158.216 331.252 157.713C333.412 153.692 335.317 150.103 336.967 146.945C338.724 143.767 339.968 141.122 340.699 139.008C340.662 138.794 340.87 138.096 341.324 136.914C341.759 135.624 342.333 133.869 343.045 131.648C342.209 131.907 341.48 132.146 340.857 132.367C340.323 132.462 339.842 132.547 339.415 132.623C338.667 132.756 337.969 132.549 337.323 132.002C336.676 131.455 336.482 130.663 336.741 129.625C337.013 128.034 338.038 126.97 339.817 126.434C341.597 125.898 343.171 125.454 344.542 125.1C344.611 124.868 344.806 124.723 345.127 124.666C345.997 122.087 346.823 119.571 347.605 117.117C348.387 114.664 349.02 112.623 349.506 110.993C350.099 109.345 350.386 108.468 350.367 108.361C351.904 104.561 352.9 102.07 353.354 100.887C353.789 99.5976 354.522 98.7512 355.553 98.3478C356.71 98.0325 357.948 97.868 359.268 97.8543C360.694 97.8217 361.687 98.1417 362.246 98.8141C362.641 99.1849 362.895 99.6909 363.008 100.332C363.176 101.294 363.131 102.294 362.872 103.332C362.595 104.263 362.289 105.034 361.955 105.644C361.659 106.468 361.165 107.107 360.473 107.56C359.87 107.888 359.394 108.633 359.047 109.797C358.335 112.018 357.544 114.418 356.674 116.997C355.803 119.576 354.861 122.058 353.847 124.442L355.742 123.94C358.269 123.272 360.627 122.578 362.815 121.859C365.109 121.122 367.762 120.541 370.773 120.117C371.307 120.023 371.86 120.035 372.432 120.154C373.092 120.147 373.45 120.304 373.506 120.625C373.581 121.052 372.295 121.886 369.648 123.128C368.654 123.745 366.388 124.643 362.848 125.821C359.397 126.875 355.838 127.946 352.173 129.037C351.461 131.258 350.799 133.139 350.188 134.68C349.558 136.115 349.139 137.181 348.93 137.879C347.442 143.213 346.091 148.082 344.88 152.485C343.757 156.763 343.313 160.203 343.549 162.806C343.517 163.253 343.539 163.69 343.614 164.118C343.67 164.438 343.736 164.812 343.81 165.24C344.56 169.516 346.324 171.407 349.102 170.915C350.812 170.611 352.843 169.314 355.196 167.023C357.53 164.625 359.853 161.844 362.162 158.679C364.454 155.406 366.506 152.342 368.319 149.486C370.22 146.503 371.485 144.295 372.115 142.86C372.38 142.483 372.672 142.265 372.993 142.209C373.42 142.133 373.769 142.236 374.039 142.519C374.416 142.783 374.544 143.201 374.424 143.773C373.781 145.761 372.527 148.353 370.664 151.55C368.888 154.62 366.801 157.801 364.403 161.092C362.094 164.257 359.772 167.038 357.437 169.436C356.236 170.752 354.632 171.973 352.626 173.1C350.745 174.316 348.736 175.113 346.599 175.492Z" fill="white" fill-opacity="0.79" shape-rendering="crispEdges"/>
</g>
<path d="M84.9358 226.59C79.2658 227.595 73.8597 227.542 68.7178 226.43C63.704 225.407 59.4354 223.183 55.912 219.759C52.4785 216.207 50.2168 211.322 49.1269 205.105C48.515 201.614 48.346 197.764 48.6198 193.554C49.0182 186.847 50.398 179.967 52.7591 172.913C55.2292 165.839 58.4206 159.031 62.333 152.488C66.3546 145.927 70.927 139.942 76.0503 134.535C81.1545 129.018 86.5943 124.454 92.3698 120.843C98.2352 117.104 104.276 114.683 110.491 113.58C112.344 113.252 114.281 113.077 116.301 113.056C120.797 113.046 124.3 114.112 126.812 116.253C129.413 118.266 130.991 120.854 131.546 124.017C132.196 127.726 131.647 131.647 129.898 135.781C128.149 139.916 125.609 144.021 122.276 148.099C119.033 152.048 115.351 155.738 111.231 159.168C107.219 162.579 103.176 165.489 99.1008 167.899C95.0261 170.309 91.3177 171.922 87.9757 172.74C85.923 173.217 84.782 172.8 84.5525 171.491C84.4378 170.837 84.6502 170.124 85.1897 169.354C85.8191 168.455 86.7785 167.835 88.0679 167.494C96.4392 165.222 103.895 161.256 110.436 155.597C117.067 149.81 121.676 142.751 124.263 134.419C124.848 132.628 125.215 130.876 125.365 129.162C125.604 127.32 125.59 125.636 125.322 124.109C124.901 121.709 123.839 119.817 122.135 118.432C120.52 116.919 118.023 116.462 114.643 117.062C110.935 117.719 106.774 119.638 102.16 122.818C97.5267 125.889 92.7833 129.936 87.9297 134.958C83.1852 139.961 78.6291 145.718 74.2613 152.229C69.9835 158.611 66.2919 165.451 63.1866 172.75C60.1713 179.921 58.1497 187.309 57.1219 194.914C56.4692 199.528 56.4679 203.69 57.1181 207.399C58.2845 214.053 61.4348 218.555 66.569 220.906C71.6841 223.148 77.8945 223.621 85.2001 222.325C91.5245 221.204 98.2573 218.885 105.399 215.369C112.649 211.834 119.48 207.192 125.893 201.443C132.287 195.585 137.325 188.731 141.008 180.88C141.259 180.385 141.602 180.099 142.038 180.022C142.474 179.945 142.894 180.095 143.298 180.473C143.81 180.832 143.941 181.259 143.691 181.753C139.398 190.613 133.974 198.154 127.419 204.378C120.974 210.582 114.027 215.526 106.578 219.209C99.1283 222.892 91.9144 225.352 84.9358 226.59ZM144.699 210.423C143.827 210.578 143.542 210.235 143.844 209.394C143.948 208.701 144.206 206.968 144.62 204.195C145.142 201.403 145.732 198.037 146.391 194.096C147.049 190.155 147.752 186.15 148.501 182.081C149.23 177.903 149.926 174.18 150.59 170.913C149.999 172.031 149.048 173.661 147.738 175.806C146.536 177.931 145.245 180.184 143.864 182.566C142.482 184.948 141.162 187.038 139.903 188.836C139.634 189.221 139.444 189.423 139.335 189.443C139.008 189.501 138.787 189.203 138.672 188.548C138.443 187.239 138.56 185.981 139.023 184.774C140.886 181.295 142.679 178.053 144.401 175.048C146.213 171.915 147.835 168.984 149.268 166.256C148.063 165.795 147.374 165.073 147.202 164.091C146.934 162.564 147.564 161.665 149.09 161.395C149.745 161.279 150.254 161.301 150.62 161.461C150.748 161.551 150.867 161.586 150.976 161.566C151.085 161.547 151.213 161.637 151.36 161.836C151.771 160.975 152.083 160.189 152.296 159.477C152.617 158.745 152.875 157.968 153.068 157.146C153.332 156.087 153.879 154.078 154.71 151.119C155.63 148.032 156.791 144.396 158.194 140.21C159.596 136.025 161.252 131.683 163.162 127.182C165.161 122.554 167.382 118.224 169.823 114.192C172.354 110.031 175.064 106.57 177.953 103.809C180.95 101.027 184.194 99.3275 187.683 98.7086C188.119 98.6313 188.565 98.6084 189.02 98.6402C189.457 98.5628 189.902 98.54 190.358 98.5717C193.179 98.6336 195.259 99.2769 196.598 100.502C197.918 101.617 198.741 103.102 199.066 104.956C199.295 106.265 199.271 107.732 198.994 109.355C198.806 110.851 198.401 112.385 197.777 113.958C196.265 118.162 194.055 122.547 191.145 127.112C188.216 131.568 184.85 136.101 181.049 140.712C177.337 145.194 173.562 149.631 169.722 154.024C165.973 158.288 162.467 162.34 159.205 166.18C157.563 172.207 156.416 177.528 155.763 182.143C155.091 186.648 154.603 190.278 154.299 193.031C155.231 191.291 156.647 188.79 158.549 185.529C160.451 182.267 162.642 178.73 165.121 174.916C167.6 171.102 170.218 167.432 172.973 163.907C175.708 160.273 178.386 157.267 181.005 154.891C183.605 152.405 185.941 150.979 188.012 150.611C190.629 150.147 192.177 151.279 192.655 154.006C193.114 156.623 192.694 159.678 191.394 163.17C190.095 166.662 189.037 169.606 188.22 172C187.248 175.434 186.53 178.711 186.064 181.83C185.689 184.82 185.555 187.262 185.662 189.155C185.63 189.611 185.652 190.057 185.728 190.493C185.785 190.821 185.852 191.202 185.929 191.639C186.694 196.002 188.603 197.913 191.656 197.371C193.291 197.081 195.3 195.713 197.682 193.266C200.064 190.819 202.433 187.98 204.79 184.751C207.147 181.521 209.251 178.449 211.101 175.534C213.041 172.49 214.332 170.237 214.975 168.773C215.245 168.388 215.598 168.157 216.034 168.079C216.47 168.002 216.826 168.107 217.101 168.396C217.377 168.685 217.453 169.121 217.331 169.705C216.565 171.753 215.286 174.398 213.494 177.64C211.682 180.773 209.607 184.009 207.269 187.348C204.912 190.577 202.543 193.416 200.161 195.863C198.935 197.205 197.244 198.461 195.088 199.63C193.06 200.89 190.955 201.713 188.775 202.1C187.03 202.409 185.263 202.273 183.475 201.69C181.686 201.108 180.2 199.684 179.016 197.42C178.517 196.496 178.114 195.162 177.808 193.416C177.713 192.871 177.617 192.326 177.521 191.78C177.407 191.126 177.346 190.462 177.341 189.788C177.165 186.22 177.669 182.363 178.854 178.216C180.128 173.941 181.315 170.132 182.416 166.787C182.699 165.837 182.892 165.016 182.995 164.323C183.208 163.61 183.276 163.036 183.199 162.599C183.046 161.727 182.588 161.358 181.825 161.494C181.062 161.629 179.948 162.333 178.485 163.604C177.021 164.876 175.137 166.954 172.832 169.837C170.796 172.335 168.712 175.516 166.578 179.381C164.535 183.118 162.511 186.963 160.506 190.918C158.61 194.853 156.9 198.249 155.377 201.106C153.963 203.944 152.913 205.648 152.226 206.22C151.738 206.644 150.58 207.412 148.751 208.523C146.922 209.635 145.572 210.268 144.699 210.423ZM161.022 158.266C164.867 154.548 168.97 150.052 173.33 144.78C177.671 139.399 181.637 133.803 185.228 127.993C188.909 122.054 191.547 116.581 193.143 111.574C194.012 108.833 194.302 106.645 194.016 105.009C193.691 103.154 192.71 102.372 191.075 102.662C190.311 102.798 189.477 103.17 188.572 103.781C187.648 104.282 186.618 105.14 185.482 106.353C179.17 113.321 174.195 121.177 170.556 129.92C166.898 138.554 163.72 148.003 161.022 158.266ZM263.371 188.869C261.517 189.198 259.696 189.071 257.907 188.489C256.228 187.887 254.796 186.454 253.612 184.189C253.113 183.266 252.71 181.931 252.404 180.186C251.984 177.786 251.842 175.056 251.98 171.995C252.118 168.934 252.387 166.299 252.787 164.091C252.28 164.406 251.416 165.572 250.196 167.588C249.065 169.475 247.62 171.812 245.86 174.599C244.189 177.257 242.256 180.018 240.06 182.882C237.953 185.617 235.671 187.99 233.213 190.001C230.755 192.011 228.217 193.249 225.6 193.713C223.855 194.022 221.916 193.86 219.781 193.226C217.627 192.484 215.807 191.401 214.32 189.977C212.302 188.086 211.093 185.995 210.691 183.704C210.175 180.759 210.621 177.531 212.029 174.019C213.546 170.489 215.628 166.97 218.274 163.464C221.009 159.83 223.966 156.494 227.144 153.456C230.411 150.29 233.537 147.598 236.522 145.382C239.596 143.037 242.121 141.408 244.097 140.495C246.163 139.454 248.56 138.692 251.286 138.208C252.812 137.938 254.431 137.875 256.144 138.022C257.836 138.059 259.305 138.417 260.548 139.096C261.497 139.378 262.311 139.852 262.99 140.519C263.669 141.186 264.085 141.955 264.238 142.828C264.391 143.701 264.057 144.041 263.236 143.849C262.135 142.695 260.792 142.09 259.208 142.033C257.714 141.848 256.203 141.891 254.677 142.162C250.315 142.935 245.766 145.204 241.029 148.969C236.293 152.733 232.187 156.891 228.713 161.444C227.596 162.767 226.131 164.995 224.319 168.128C222.597 171.133 221.087 174.381 219.788 177.873C218.489 181.365 218.068 184.42 218.527 187.038C218.776 188.456 219.377 189.643 220.332 190.598C220.902 191.284 221.678 191.54 222.659 191.366C224.186 191.096 226.059 189.92 228.28 187.839C230.611 185.738 232.938 183.301 235.262 180.527C237.568 177.644 239.62 174.918 241.418 172.35C243.325 169.762 244.684 167.89 245.493 166.735C245.942 166.092 246.787 164.818 248.027 162.911C249.357 160.876 250.776 158.712 252.286 156.42C253.795 154.128 255.134 152.147 256.303 150.477C257.581 148.789 258.438 147.906 258.874 147.828C259.42 147.731 260.321 147.74 261.577 147.855C262.924 147.841 264.082 148.029 265.049 148.42C266.017 148.811 266.305 149.491 265.913 150.46C263.805 155.108 262.28 159.877 261.338 164.768C260.486 169.53 260.127 173.249 260.258 175.925C260.226 176.381 260.248 176.827 260.324 177.263C260.382 177.59 260.449 177.972 260.525 178.408C261.29 182.772 263.199 184.682 266.252 184.141C267.888 183.851 269.896 182.482 272.278 180.035C274.66 177.588 277.029 174.75 279.386 171.52C281.743 168.291 283.847 165.218 285.697 162.303C287.637 159.26 288.928 157.006 289.571 155.543C289.841 155.158 290.139 154.936 290.466 154.878C290.903 154.801 291.322 154.951 291.726 155.329C292.111 155.599 292.187 156.035 291.956 156.638C291.1 158.814 289.767 161.469 287.955 164.602C286.143 167.735 284.059 170.917 281.702 174.146C279.345 177.376 276.975 180.215 274.594 182.661C273.367 184.004 271.731 185.25 269.684 186.4C267.656 187.66 265.552 188.483 263.371 188.869ZM313.498 180.316C311.644 180.645 309.932 180.499 308.362 179.878C306.81 179.366 305.561 178.013 304.614 175.819C304.077 174.677 303.703 173.506 303.493 172.306C302.919 169.034 303.182 165.725 304.283 162.381C305.473 158.908 306.983 155.66 308.814 152.636C310.626 149.503 312.187 146.864 313.498 144.72C314.217 143.692 314.998 142.373 315.839 140.762C316.79 139.131 317.141 137.607 316.893 136.188C316.74 135.316 316.16 134.575 315.154 133.966C314.129 133.248 312.443 132.929 310.095 133.008C308.749 133.022 307.466 133.08 306.247 133.184C305.119 133.159 303.955 133.253 302.755 133.466C300.429 138.153 298.166 142.884 295.968 147.66C293.86 152.308 291.524 156.94 288.96 161.556C288.33 162.455 287.743 162.953 287.198 163.049C286.544 163.165 286.159 162.896 286.044 162.242C285.93 161.587 286.142 160.875 286.682 160.104C291.308 151.861 295.03 143.271 297.849 134.336C297.303 134.433 296.486 134.578 295.395 134.771C294.286 134.856 293.394 134.901 292.721 134.908C291.919 134.826 291.262 134.605 290.75 134.246C290.237 133.887 289.942 133.489 289.866 133.053C289.751 132.398 289.957 131.968 290.483 131.762C291.824 131.075 293.236 130.15 294.718 128.987C296.201 127.824 297.527 126.408 298.696 124.739C299.955 122.941 301.095 121.108 302.116 119.239C303.119 117.262 303.925 115.769 304.536 114.761C305.203 114.081 305.973 113.663 306.846 113.508C307.391 113.412 307.91 113.488 308.404 113.738C309.006 113.969 309.365 114.411 309.48 115.066C309.614 115.829 309.459 116.869 309.015 118.185C308.301 119.886 307.507 121.77 306.633 123.837C305.867 125.885 305.128 127.759 304.414 129.46C306.396 129.221 308.378 128.982 310.36 128.743C312.342 128.504 314.368 128.201 316.44 127.834C317.53 127.64 318.566 127.456 319.548 127.282C320.619 126.98 321.7 126.732 322.79 126.539C326.061 125.958 327.84 126.486 328.127 128.123C328.318 129.213 327.958 130.683 327.045 132.532C326.222 134.253 325.156 136.185 323.845 138.329C320.884 143.241 318.506 148.274 316.711 153.429C314.916 158.583 313.802 162.492 313.37 165.156C312.956 167.928 312.864 169.969 313.094 171.278C313.553 173.896 314.818 175.021 316.89 174.654C318.744 174.325 320.816 173.001 323.108 170.683C325.509 168.345 327.898 165.616 330.274 162.495C332.631 159.265 334.734 156.193 336.584 153.278C338.415 150.254 339.707 148 340.459 146.517C340.619 146.152 340.918 145.93 341.354 145.853C341.79 145.775 342.21 145.926 342.614 146.304C342.998 146.573 343.075 147.01 342.843 147.613C341.969 149.68 340.635 152.335 338.843 155.577C337.031 158.71 334.946 161.891 332.589 165.121C330.232 168.351 327.863 171.189 325.481 173.636C324.255 174.978 322.464 176.308 320.109 177.625C317.882 179.033 315.679 179.93 313.498 180.316ZM351.297 173.275C349.334 173.623 347.459 173.506 345.67 172.923C343.991 172.321 342.559 170.888 341.375 168.624C341.208 168.316 341.042 168.008 340.876 167.7C340.818 167.373 340.751 166.991 340.675 166.555C340.292 164.373 340.305 161.559 340.713 158.113C341.12 154.667 341.765 151.291 342.648 147.985C342.146 148.974 341.574 150.2 340.931 151.663C340.269 153.018 339.293 154.822 338.001 157.076C337.642 157.589 337.189 157.894 336.644 157.991C335.881 158.127 335.423 157.758 335.27 156.885C335.155 156.231 335.277 155.647 335.637 155.133C337.841 151.031 339.785 147.368 341.468 144.145C343.261 140.903 344.531 138.204 345.277 136.047C345.239 135.829 345.451 135.116 345.914 133.909C346.358 132.593 346.943 130.803 347.67 128.537C346.817 128.8 346.073 129.045 345.438 129.27C344.893 129.367 344.402 129.454 343.966 129.531C343.203 129.666 342.491 129.455 341.831 128.897C341.171 128.34 340.973 127.531 341.237 126.472C341.515 124.848 342.561 123.763 344.377 123.216C346.192 122.669 347.799 122.216 349.198 121.855C349.268 121.618 349.467 121.47 349.794 121.412C350.682 118.78 351.525 116.212 352.323 113.709C353.121 111.206 353.768 109.123 354.263 107.46C354.868 105.778 355.16 104.883 355.141 104.774C356.71 100.897 357.726 98.3545 358.189 97.1477C358.633 95.8318 359.381 94.9681 360.433 94.5565C361.614 94.2347 362.877 94.0669 364.224 94.053C365.68 94.0197 366.693 94.3462 367.263 95.0324C367.666 95.4107 367.925 95.9271 368.04 96.5815C368.212 97.5632 368.166 98.5836 367.902 99.6427C367.619 100.593 367.307 101.379 366.967 102.002C366.664 102.843 366.16 103.494 365.454 103.957C364.838 104.291 364.353 105.052 363.999 106.24C363.272 108.505 362.465 110.954 361.577 113.586C360.689 116.218 359.728 118.75 358.693 121.183L360.627 120.672C363.205 119.989 365.611 119.281 367.843 118.548C370.185 117.795 372.892 117.203 375.964 116.77C376.509 116.674 377.073 116.686 377.657 116.808C378.33 116.801 378.696 116.961 378.753 117.288C378.83 117.724 377.517 118.576 374.816 119.842C373.802 120.472 371.489 121.388 367.877 122.591C364.356 123.665 360.725 124.759 356.985 125.872C356.258 128.138 355.582 130.058 354.959 131.63C354.316 133.094 353.888 134.182 353.676 134.895C352.156 140.338 350.779 145.306 349.543 149.799C348.396 154.163 347.944 157.674 348.185 160.331C348.152 160.786 348.174 161.232 348.251 161.669C348.308 161.996 348.375 162.378 348.451 162.814C349.216 167.177 351.016 169.107 353.851 168.604C355.596 168.295 357.669 166.971 360.069 164.634C362.451 162.187 364.821 159.348 367.178 156.119C369.516 152.78 371.61 149.653 373.46 146.738C375.4 143.695 376.691 141.441 377.334 139.977C377.604 139.592 377.902 139.37 378.229 139.312C378.665 139.235 379.021 139.341 379.297 139.629C379.681 139.898 379.812 140.325 379.69 140.909C379.033 142.938 377.754 145.583 375.853 148.844C374.041 151.977 371.911 155.223 369.464 158.581C367.107 161.811 364.738 164.649 362.356 167.096C361.13 168.438 359.493 169.684 357.446 170.835C355.528 172.075 353.478 172.888 351.297 173.275Z" fill="white" fill-opacity="0.2"/>
<g filter="url(#filter10_d_897_165)">
<path d="M147.406 245.342C175.044 228.507 192.219 223.446 225.794 221.865C240.138 222.738 213.684 250.437 242.969 238.034C272.254 225.63 277.759 221.865 296.916 200.824" stroke="#FF00B8" stroke-width="2.34707" stroke-linecap="round"/>
</g>
<g filter="url(#filter11_d_897_165)">
<path d="M276.445 207.832L296.885 200.594C297.256 200.463 297.612 200.822 297.482 201.195L290.286 221.754" stroke="#FF00B8" stroke-width="2.34707" stroke-linecap="round"/>
</g>
<g filter="url(#filter12_d_897_165)">
<path d="M277.758 206.945L298.198 199.707C298.568 199.576 298.925 199.935 298.794 200.308L291.599 220.867" stroke="white" stroke-opacity="0.2" stroke-width="2.34707" stroke-linecap="round" shape-rendering="crispEdges"/>
</g>
<g filter="url(#filter13_d_897_165)">
<path d="M148.293 244.682C175.483 228.936 192.379 224.202 225.411 222.723C239.523 223.539 213.497 249.447 242.308 237.846C271.119 226.245 276.534 222.723 295.38 203.043" stroke="white" stroke-opacity="0.2" stroke-width="2.34707" stroke-linecap="round" shape-rendering="crispEdges"/>
</g>
<g filter="url(#filter14_d_897_165)">
<path d="M305.466 175.413C305.466 228.533 262.656 271.588 209.856 271.588C157.056 271.588 114.247 228.533 114.247 175.413C114.247 122.294 157.056 79.2389 209.856 79.2389C262.656 79.2389 305.466 122.294 305.466 175.413Z" stroke="white" stroke-width="1.24333" shape-rendering="crispEdges"/>
</g>
<defs>
<filter id="filter0_d_897_165" x="210.846" y="32.213" width="142.683" height="151.82" filterUnits="userSpaceOnUse" color-interpolation-filters="sRGB">
<feFlood flood-opacity="0" result="BackgroundImageFix"/>
<feColorMatrix in="SourceAlpha" type="matrix" values="0 0 0 0 0 0 0 0 0 0 0 0 0 0 0 0 0 0 127 0" result="hardAlpha"/>
<feOffset/>
<feGaussianBlur stdDeviation="3.10833"/>
<feComposite in2="hardAlpha" operator="out"/>
<feColorMatrix type="matrix" values="0 0 0 0 1 0 0 0 0 0.960784 0 0 0 0 0 0 0 0 1 0"/>
<feBlend mode="normal" in2="BackgroundImageFix" result="effect1_dropShadow_897_165"/>
<feBlend mode="normal" in="SourceGraphic" in2="effect1_dropShadow_897_165" result="shape"/>
</filter>
<filter id="filter1_d_897_165" x="67.3536" y="167.861" width="142.683" height="151.82" filterUnits="userSpaceOnUse" color-interpolation-filters="sRGB">
<feFlood flood-opacity="0" result="BackgroundImageFix"/>
<feColorMatrix in="SourceAlpha" type="matrix" values="0 0 0 0 0 0 0 0 0 0 0 0 0 0 0 0 0 0 127 0" result="hardAlpha"/>
<feOffset/>
<feGaussianBlur stdDeviation="3.10833"/>
<feComposite in2="hardAlpha" operator="out"/>
<feColorMatrix type="matrix" values="0 0 0 0 1 0 0 0 0 0.960784 0 0 0 0 0 0 0 0 1 0"/>
<feBlend mode="normal" in2="BackgroundImageFix" result="effect1_dropShadow_897_165"/>
<feBlend mode="normal" in="SourceGraphic" in2="effect1_dropShadow_897_165" result="shape"/>
</filter>
<filter id="filter2_d_897_165" x="202.365" y="176.881" width="151.117" height="143.312" filterUnits="userSpaceOnUse" color-interpolation-filters="sRGB">
<feFlood flood-opacity="0" result="BackgroundImageFix"/>
<feColorMatrix in="SourceAlpha" type="matrix" values="0 0 0 0 0 0 0 0 0 0 0 0 0 0 0 0 0 0 127 0" result="hardAlpha"/>
<feOffset/>
<feGaussianBlur stdDeviation="3.10833"/>
<feComposite in2="hardAlpha" operator="out"/>
<feColorMatrix type="matrix" values="0 0 0 0 1 0 0 0 0 0.960784 0 0 0 0 0 0 0 0 1 0"/>
<feBlend mode="normal" in2="BackgroundImageFix" result="effect1_dropShadow_897_165"/>
<feBlend mode="normal" in="SourceGraphic" in2="effect1_dropShadow_897_165" result="shape"/>
</filter>
<filter id="filter3_d_897_165" x="67.9005" y="32.1818" width="151.117" height="143.312" filterUnits="userSpaceOnUse" color-interpolation-filters="sRGB">
<feFlood flood-opacity="0" result="BackgroundImageFix"/>
<feColorMatrix in="SourceAlpha" type="matrix" values="0 0 0 0 0 0 0 0 0 0 0 0 0 0 0 0 0 0 127 0" result="hardAlpha"/>
<feOffset/>
<feGaussianBlur stdDeviation="3.10833"/>
<feComposite in2="hardAlpha" operator="out"/>
<feColorMatrix type="matrix" values="0 0 0 0 1 0 0 0 0 0.960784 0 0 0 0 0 0 0 0 1 0"/>
<feBlend mode="normal" in2="BackgroundImageFix" result="effect1_dropShadow_897_165"/>
<feBlend mode="normal" in="SourceGraphic" in2="effect1_dropShadow_897_165" result="shape"/>
</filter>
<filter id="filter4_d_897_165" x="121.529" y="45.3302" width="182.789" height="52.0779" filterUnits="userSpaceOnUse" color-interpolation-filters="sRGB">
<feFlood flood-opacity="0" result="BackgroundImageFix"/>
<feColorMatrix in="SourceAlpha" type="matrix" values="0 0 0 0 0 0 0 0 0 0 0 0 0 0 0 0 0 0 127 0" result="hardAlpha"/>
<feOffset/>
<feGaussianBlur stdDeviation="3.10833"/>
<feComposite in2="hardAlpha" operator="out"/>
<feColorMatrix type="matrix" values="0 0 0 0 1 0 0 0 0 0.960784 0 0 0 0 0 0 0 0 1 0"/>
<feBlend mode="normal" in2="BackgroundImageFix" result="effect1_dropShadow_897_165"/>
<feBlend mode="normal" in="SourceGraphic" in2="effect1_dropShadow_897_165" result="shape"/>
</filter>
<filter id="filter5_d_897_165" x="115.986" y="254.576" width="182.746" height="52.0779" filterUnits="userSpaceOnUse" color-interpolation-filters="sRGB">
<feFlood flood-opacity="0" result="BackgroundImageFix"/>
<feColorMatrix in="SourceAlpha" type="matrix" values="0 0 0 0 0 0 0 0 0 0 0 0 0 0 0 0 0 0 127 0" result="hardAlpha"/>
<feOffset/>
<feGaussianBlur stdDeviation="3.10833"/>
<feComposite in2="hardAlpha" operator="out"/>
<feColorMatrix type="matrix" values="0 0 0 0 1 0 0 0 0 0.960784 0 0 0 0 0 0 0 0 1 0"/>
<feBlend mode="normal" in2="BackgroundImageFix" result="effect1_dropShadow_897_165"/>
<feBlend mode="normal" in="SourceGraphic" in2="effect1_dropShadow_897_165" result="shape"/>
</filter>
<filter id="filter6_d_897_165" x="288.322" y="87.006" width="51.9607" height="183.898" filterUnits="userSpaceOnUse" color-interpolation-filters="sRGB">
<feFlood flood-opacity="0" result="BackgroundImageFix"/>
<feColorMatrix in="SourceAlpha" type="matrix" values="0 0 0 0 0 0 0 0 0 0 0 0 0 0 0 0 0 0 127 0" result="hardAlpha"/>
<feOffset/>
<feGaussianBlur stdDeviation="3.10833"/>
<feComposite in2="hardAlpha" operator="out"/>
<feColorMatrix type="matrix" values="0 0 0 0 1 0 0 0 0 0.960784 0 0 0 0 0 0 0 0 1 0"/>
<feBlend mode="normal" in2="BackgroundImageFix" result="effect1_dropShadow_897_165"/>
<feBlend mode="normal" in="SourceGraphic" in2="effect1_dropShadow_897_165" result="shape"/>
</filter>
<filter id="filter7_d_897_165" x="80.6622" y="81.0802" width="51.9607" height="183.898" filterUnits="userSpaceOnUse" color-interpolation-filters="sRGB">
<feFlood flood-opacity="0" result="BackgroundImageFix"/>
<feColorMatrix in="SourceAlpha" type="matrix" values="0 0 0 0 0 0 0 0 0 0 0 0 0 0 0 0 0 0 127 0" result="hardAlpha"/>
<feOffset/>
<feGaussianBlur stdDeviation="3.10833"/>
<feComposite in2="hardAlpha" operator="out"/>
<feColorMatrix type="matrix" values="0 0 0 0 1 0 0 0 0 0.960784 0 0 0 0 0 0 0 0 1 0"/>
<feBlend mode="normal" in2="BackgroundImageFix" result="effect1_dropShadow_897_165"/>
<feBlend mode="normal" in="SourceGraphic" in2="effect1_dropShadow_897_165" result="shape"/>
</filter>
<filter id="filter8_d_897_165" x="0.0860825" y="39.6115" width="419.707" height="232.14" filterUnits="userSpaceOnUse" color-interpolation-filters="sRGB">
<feFlood flood-opacity="0" result="BackgroundImageFix"/>
<feColorMatrix in="SourceAlpha" type="matrix" values="0 0 0 0 0 0 0 0 0 0 0 0 0 0 0 0 0 0 127 0" result="hardAlpha"/>
<feOffset dy="3.32225"/>
<feGaussianBlur stdDeviation="16.6113"/>
<feComposite in2="hardAlpha" operator="out"/>
<feColorMatrix type="matrix" values="0 0 0 0 0.741176 0 0 0 0 1 0 0 0 0 0.00784314 0 0 0 1 0"/>
<feBlend mode="normal" in2="BackgroundImageFix" result="effect1_dropShadow_897_165"/>
<feBlend mode="normal" in="SourceGraphic" in2="effect1_dropShadow_897_165" result="shape"/>
</filter>
<filter id="filter9_d_897_165" x="3.61733" y="40.8576" width="412.64" height="228.828" filterUnits="userSpaceOnUse" color-interpolation-filters="sRGB">
<feFlood flood-opacity="0" result="BackgroundImageFix"/>
<feColorMatrix in="SourceAlpha" type="matrix" values="0 0 0 0 0 0 0 0 0 0 0 0 0 0 0 0 0 0 127 0" result="hardAlpha"/>
<feOffset dy="3.32225"/>
<feGaussianBlur stdDeviation="16.6113"/>
<feComposite in2="hardAlpha" operator="out"/>
<feColorMatrix type="matrix" values="0 0 0 0 1 0 0 0 0 0 0 0 0 0 0.631373 0 0 0 1 0"/>
<feBlend mode="normal" in2="BackgroundImageFix" result="effect1_dropShadow_897_165"/>
<feBlend mode="normal" in="SourceGraphic" in2="effect1_dropShadow_897_165" result="shape"/>
</filter>
<filter id="filter10_d_897_165" x="127.458" y="182.753" width="189.409" height="84.4163" filterUnits="userSpaceOnUse" color-interpolation-filters="sRGB">
<feFlood flood-opacity="0" result="BackgroundImageFix"/>
<feColorMatrix in="SourceAlpha" type="matrix" values="0 0 0 0 0 0 0 0 0 0 0 0 0 0 0 0 0 0 127 0" result="hardAlpha"/>
<feOffset dy="1.87765"/>
<feGaussianBlur stdDeviation="9.38826"/>
<feComposite in2="hardAlpha" operator="out"/>
<feColorMatrix type="matrix" values="0 0 0 0 1 0 0 0 0 0 0 0 0 0 0.721569 0 0 0 1 0"/>
<feBlend mode="normal" in2="BackgroundImageFix" result="effect1_dropShadow_897_165"/>
<feBlend mode="normal" in="SourceGraphic" in2="effect1_dropShadow_897_165" result="shape"/>
</filter>
<filter id="filter11_d_897_165" x="256.497" y="182.488" width="60.9632" height="61.096" filterUnits="userSpaceOnUse" color-interpolation-filters="sRGB">
<feFlood flood-opacity="0" result="BackgroundImageFix"/>
<feColorMatrix in="SourceAlpha" type="matrix" values="0 0 0 0 0 0 0 0 0 0 0 0 0 0 0 0 0 0 127 0" result="hardAlpha"/>
<feOffset dy="1.87765"/>
<feGaussianBlur stdDeviation="9.38826"/>
<feComposite in2="hardAlpha" operator="out"/>
<feColorMatrix type="matrix" values="0 0 0 0 1 0 0 0 0 0 0 0 0 0 0.721569 0 0 0 1 0"/>
<feBlend mode="normal" in2="BackgroundImageFix" result="effect1_dropShadow_897_165"/>
<feBlend mode="normal" in="SourceGraphic" in2="effect1_dropShadow_897_165" result="shape"/>
</filter>
<filter id="filter12_d_897_165" x="257.809" y="181.601" width="60.9632" height="61.096" filterUnits="userSpaceOnUse" color-interpolation-filters="sRGB">
<feFlood flood-opacity="0" result="BackgroundImageFix"/>
<feColorMatrix in="SourceAlpha" type="matrix" values="0 0 0 0 0 0 0 0 0 0 0 0 0 0 0 0 0 0 127 0" result="hardAlpha"/>
<feOffset dy="1.87765"/>
<feGaussianBlur stdDeviation="9.38826"/>
<feComposite in2="hardAlpha" operator="out"/>
<feColorMatrix type="matrix" values="0 0 0 0 1 0 0 0 0 0 0 0 0 0 0.721569 0 0 0 1 0"/>
<feBlend mode="normal" in2="BackgroundImageFix" result="effect1_dropShadow_897_165"/>
<feBlend mode="normal" in="SourceGraphic" in2="effect1_dropShadow_897_165" result="shape"/>
</filter>
<filter id="filter13_d_897_165" x="128.345" y="184.972" width="186.987" height="81.5374" filterUnits="userSpaceOnUse" color-interpolation-filters="sRGB">
<feFlood flood-opacity="0" result="BackgroundImageFix"/>
<feColorMatrix in="SourceAlpha" type="matrix" values="0 0 0 0 0 0 0 0 0 0 0 0 0 0 0 0 0 0 127 0" result="hardAlpha"/>
<feOffset dy="1.87765"/>
<feGaussianBlur stdDeviation="9.38826"/>
<feComposite in2="hardAlpha" operator="out"/>
<feColorMatrix type="matrix" values="0 0 0 0 1 0 0 0 0 0 0 0 0 0 0.721569 0 0 0 1 0"/>
<feBlend mode="normal" in2="BackgroundImageFix" result="effect1_dropShadow_897_165"/>
<feBlend mode="normal" in="SourceGraphic" in2="effect1_dropShadow_897_165" result="shape"/>
</filter>
<filter id="filter14_d_897_165" x="103.625" y="68.6172" width="212.461" height="213.594" filterUnits="userSpaceOnUse" color-interpolation-filters="sRGB">
<feFlood flood-opacity="0" result="BackgroundImageFix"/>
<feColorMatrix in="SourceAlpha" type="matrix" values="0 0 0 0 0 0 0 0 0 0 0 0 0 0 0 0 0 0 127 0" result="hardAlpha"/>
<feOffset/>
<feGaussianBlur stdDeviation="5"/>
<feComposite in2="hardAlpha" operator="out"/>
<feColorMatrix type="matrix" values="0 0 0 0 1 0 0 0 0 1 0 0 0 0 1 0 0 0 1 0"/>
<feBlend mode="normal" in2="BackgroundImageFix" result="effect1_dropShadow_897_165"/>
<feBlend mode="normal" in="SourceGraphic" in2="effect1_dropShadow_897_165" result="shape"/>
</filter>
<linearGradient id="paint0_linear_897_165" x1="210.03" y1="31.1797" x2="210.03" y2="319.885" gradientUnits="userSpaceOnUse">
<stop stop-color="#F7F16D"/>
<stop offset="1" stop-color="#C61987" stop-opacity="0"/>
</linearGradient>
</defs>
</svg>
